<svg width="58" height="27" viewBox="0 0 58 27" fill="none" xmlns="http://www.w3.org/2000/svg">
<g clip-path="url(#clip0_1272_27901)">
<path d="M23.2811 0.550783C25.8219 0.0229416 28.4316 -0.0541036 31.0184 0.0294986C33.1298 0.18031 35.2608 0.29178 37.3213 0.816343C39.5458 1.38025 41.6883 2.38511 43.4292 3.89487C44.0325 4.4014 44.5554 5.02104 44.8455 5.76035C45.4357 7.13896 45.0865 8.7897 44.1636 9.93718C43.4751 10.783 42.6375 11.5223 41.6867 12.0584C39.9327 12.9813 38.0328 13.5944 36.0968 13.9993C33.0347 14.7009 29.8807 15.0238 26.7399 14.9369C26.9071 14.355 27.2776 13.8698 27.5858 13.3583C28.4431 11.9338 29.4185 10.5847 30.3086 9.18148C32.1134 6.55211 34.1789 4.11945 36.1132 1.58679C34.5494 2.65887 33.2609 4.07027 31.9118 5.38824C30.7545 6.63571 29.5185 7.81598 28.4595 9.15034C27.0252 11.0109 25.5875 12.8715 24.2171 14.7779C23.0499 14.6861 21.8812 14.491 20.7468 14.2042C21.5336 12.9075 22.6664 11.8781 23.7007 10.783C24.5892 9.86997 25.5367 9.01592 26.453 8.13072C28.5529 6.26524 30.8315 4.61615 33.1183 2.99C33.7838 2.51298 34.4985 2.0966 35.1198 1.56057C33.2281 2.37856 31.4413 3.42276 29.643 4.42763C27.2383 5.75871 25.0335 7.42256 22.9401 9.1946C21.3058 10.506 19.7829 11.9469 18.2813 13.4042C18.0814 13.6124 17.783 13.4419 17.5535 13.3911C15.7569 12.7567 14.1324 11.5945 13.0128 10.047C12.244 9.03067 12.1915 7.59796 12.657 6.44392C13.4455 4.75548 14.9618 3.52604 16.5798 2.66871C18.6846 1.6163 20.9845 1.01961 23.2811 0.550783ZM25.7744 0.88847C23.3926 1.23599 21.0222 1.75236 18.7567 2.57527C17.1765 3.1654 15.6323 4.19813 14.9455 5.79641C14.5684 6.5849 14.6766 7.5373 15.1028 8.28317C15.4044 8.90609 16.0405 9.41262 16.7634 9.33229C17.5306 9.20935 18.2043 8.77822 18.8895 8.43562C20.0091 7.77664 21.2009 7.25535 22.3516 6.65374C26.0596 4.82761 29.7955 3.03754 33.674 1.59335C34.0641 1.45238 34.4821 1.35402 34.8149 1.09174C31.8282 0.631107 28.7824 0.678645 25.7744 0.88847ZM33.592 7.23568C33.038 8.37005 32.3773 9.45196 31.8856 10.6158C31.7364 11.0781 31.4921 11.6355 31.8052 12.0846C32.1331 12.3666 32.5921 12.3125 32.9888 12.26C34.5002 12.0354 35.964 11.5764 37.3951 11.0486C38.8196 10.5191 40.1441 9.70768 41.2424 8.65528C41.8981 8.04875 42.2735 7.18322 42.3752 6.30458C42.4096 5.26365 41.7965 4.3178 40.9851 3.71127C39.7458 2.74247 38.2918 2.02939 36.7738 1.62778C35.5575 3.40309 34.6215 5.34889 33.592 7.23568Z" fill="#21252D"/>
<path d="M0.000366211 20.0498C0.0806899 19.4843 0.306908 18.6679 1.02162 18.6942C1.68225 18.7171 2.43303 18.5286 3.02972 18.8745C3.22479 19.2974 3.08381 19.8072 3.15758 20.2629C3.52641 19.7843 3.57887 19.0253 4.16572 18.7515C4.90503 18.6368 5.67548 18.645 6.41479 18.7548C7.10164 18.9253 7.30162 19.6662 7.48686 20.2531C7.72128 19.8859 7.87864 19.4777 8.08519 19.0958C8.32452 18.6253 8.94252 18.7073 9.38348 18.686C9.99657 18.7401 10.7375 18.5827 11.2211 19.0597C11.7375 19.5138 11.7539 20.2597 11.7604 20.8957C11.7375 22.4776 11.7834 24.0595 11.7375 25.6413C11.7375 26.3675 10.8408 26.1085 10.372 26.1889C9.94247 26.143 9.19989 26.3511 9.05727 25.7856C8.91957 24.2906 9.10317 22.7776 8.97367 21.2826C8.8245 20.6236 7.96389 20.858 7.46883 20.7744C7.4508 22.2923 7.47539 23.8103 7.46063 25.3282C7.44916 25.5938 7.45244 25.9364 7.19343 26.0938C6.48036 26.3003 5.71646 26.2561 4.99191 26.1315C4.79684 25.9774 4.71487 25.7282 4.72471 25.4856C4.69193 24.2627 4.76733 23.0366 4.69684 21.8153C4.6493 21.4858 4.67389 21.0481 4.33457 20.8662C3.9559 20.7547 3.55264 20.8039 3.16414 20.776C3.04775 22.3956 3.16086 24.0218 3.1084 25.643C3.09693 25.8348 3.09037 26.1413 2.81333 26.1167C2.07239 26.1921 1.32489 26.1692 0.587221 26.0774C0.362642 24.307 0.541322 22.5087 0.515094 20.7285C0.518372 20.4088 0.187242 20.2564 0.000366211 20.0498Z" fill="#21252D"/>
<path d="M19.6239 20.0761C19.8436 19.6073 19.9321 18.868 20.5468 18.7713C21.2796 18.668 22.0353 18.6746 22.7582 18.8385C22.909 19.845 22.845 20.8679 22.8696 21.8826C23.0959 21.5351 23.2254 21.0794 23.5975 20.8564C24.1909 20.7007 24.8187 20.7663 25.4252 20.7876C26.0531 20.804 26.4612 21.4482 26.4334 22.0318C26.4219 23.394 26.476 24.7595 26.3908 26.1201C25.6613 26.1709 24.9285 26.184 24.1991 26.1135C24.1286 24.9824 24.2564 23.8448 24.1302 22.7203C24.0827 22.2252 23.3958 22.1908 23.0565 22.4137C22.8336 22.6662 22.8385 23.0235 22.8254 23.3415C22.809 24.2661 22.868 25.1923 22.7877 26.1135C22.0025 26.2365 21.1927 26.3053 20.4091 26.1266C20.1468 25.9627 20.2271 25.5922 20.196 25.3316C20.2222 23.8497 20.2796 22.3678 20.237 20.8859C20.2894 20.4794 19.8813 20.2958 19.6239 20.0761Z" fill="#21252D"/>
<path d="M27.7956 18.8252C28.5349 18.6662 29.2972 18.6973 30.043 18.8055C30.143 19.271 30.1266 19.7497 30.0266 20.2153C29.2709 20.3251 28.5021 20.3103 27.7464 20.2054C27.6399 19.7464 27.671 19.276 27.7956 18.8252Z" fill="#21252D"/>
<path d="M41.8818 20.0711C42.0555 19.581 42.2162 18.845 42.8391 18.7892C43.4718 18.74 44.1177 18.7138 44.7439 18.8253C45.2619 18.9958 45.0881 19.6564 45.1291 20.0728C45.0537 22.089 45.0882 24.107 45.0668 26.1249C44.2144 26.1331 43.3604 26.156 42.508 26.1298C42.4621 25.6954 42.4473 25.261 42.4424 24.825C42.2834 25.1856 42.1473 25.561 41.9244 25.8872C41.6867 26.2331 41.2162 26.1282 40.8589 26.1741C40.2212 26.161 39.4343 26.2823 38.9836 25.7184C38.2524 24.8905 38.5508 23.7004 38.4836 22.6972C38.3983 21.9448 38.8295 21.1547 39.5655 20.9137C40.5228 20.617 41.5457 20.8645 42.5293 20.7432C42.3194 20.5154 42.0555 20.3301 41.8818 20.0711ZM41.9654 22.1628C41.6342 22.2858 41.1392 22.3103 41.0375 22.7234C40.9015 23.2005 40.8818 23.7709 41.1703 24.1971C41.4654 24.6004 42.0227 24.402 42.4473 24.4496C42.4522 23.2529 42.467 22.0546 42.4424 20.858C42.2358 21.2743 42.1162 21.7251 41.9654 22.1628Z" fill="#21252D"/>
<path d="M12.8357 22.1383C12.9701 21.6366 13.1062 20.9318 13.6668 20.7596C15.0257 20.6613 16.3912 20.776 17.7518 20.7777C18.3747 20.735 19.0206 21.2268 18.9993 21.8809C19.0141 23.2644 19.0091 24.6545 18.9436 26.0348C18.278 26.3102 17.4797 26.1266 16.765 26.1135C16.6486 25.4315 16.6929 24.7381 16.6961 24.0513C16.4175 23.9283 16.1208 23.7972 15.8093 23.8791C15.4864 23.8988 15.2995 24.3414 15.4995 24.5939C15.8519 24.7791 16.265 24.7594 16.6486 24.8332C16.5044 25.3086 16.229 25.7413 15.8798 26.0905C15.1225 26.1823 14.3061 26.3167 13.5717 26.0495C12.3849 25.2873 12.698 22.9792 14.1553 22.7251C14.9667 22.6513 15.7864 22.7333 16.5994 22.6563C16.6093 22.5481 16.6273 22.3317 16.6371 22.2251C15.37 22.1874 14.1012 22.2301 12.8357 22.1383Z" fill="#21252D"/>
<path d="M27.8088 20.8121C28.4366 20.7499 29.1104 20.6859 29.7169 20.8941C30.4349 21.2793 30.1546 22.2039 30.2054 22.8612C30.1201 23.9546 30.389 25.0988 30.0464 26.1545C29.4071 26.143 28.7596 26.2201 28.1252 26.1102C27.8891 26.0168 28.0039 25.6857 27.953 25.489C27.9203 24.5644 28.0235 23.6317 27.9039 22.7121C27.8694 22.394 27.5301 22.2908 27.3055 22.1301C27.4055 21.6793 27.4072 21.1171 27.8088 20.8121Z" fill="#21252D"/>
<path d="M31.2446 20.958C31.4086 20.7056 31.7446 20.7957 31.9987 20.7629C32.4708 20.7826 32.997 20.7006 33.4183 20.9597C33.7822 21.1924 33.7757 21.6678 33.8773 22.0416C34.1101 21.6547 34.256 21.1793 34.6297 20.9023C35.2543 20.6777 35.9427 20.7892 36.5935 20.8039C37.2345 20.7842 37.5328 21.5022 37.5279 22.0465C37.5492 23.4038 37.5459 24.7611 37.5214 26.1184C36.7886 26.143 36.0559 26.1413 35.3231 26.1233C35.2182 24.9971 35.3526 23.8628 35.2526 22.7382C35.0477 22.1334 34.2641 22.3252 33.7756 22.3071C33.7461 23.3677 33.7756 24.4283 33.7707 25.4889C33.7216 25.6873 33.833 26.02 33.5953 26.1151C33.0216 26.1594 32.4429 26.1397 31.8692 26.1299C31.5725 26.1856 31.543 25.8512 31.5249 25.6463C31.4643 24.6709 31.5758 23.689 31.4823 22.7153C31.461 22.4006 31.1119 22.3038 30.9004 22.1416C30.9742 21.7399 31.002 21.3023 31.2446 20.958Z" fill="#21252D"/>
<path d="M51.4354 22.2186C51.5321 21.6793 51.6633 20.8252 52.3665 20.817C53.6533 20.7842 54.9434 20.7892 56.2302 20.8154C56.845 20.8006 57.3581 21.2055 57.5794 21.7612V26.3036H55.4155C55.1155 25.5791 55.2598 24.784 55.1992 24.0234C54.7959 23.9333 54.2976 23.8464 53.9927 24.207C53.7943 24.9185 54.7402 24.7119 55.1024 25.0168C55.0615 25.5348 54.6369 25.9446 54.2943 26.3036H52.3796C50.9797 25.702 51.1076 23.1989 52.6058 22.8218C53.4533 22.7005 54.3156 22.8169 55.168 22.7251C55.1533 22.6104 55.1237 22.3792 55.109 22.2629C53.8845 22.2661 52.6567 22.3333 51.4354 22.2186Z" fill="#21252D"/>
<path d="M45.6538 21.8939C45.7145 21.5283 45.7817 21.0759 46.1341 20.8743C46.7079 20.7661 47.3095 20.7743 47.8832 20.8792C48.2898 20.9448 48.4209 21.3874 48.6225 21.6841C48.8406 21.3874 48.9848 20.9399 49.3963 20.8694C50.0028 20.7546 50.6224 20.8448 51.2306 20.8989C51.0634 21.3579 50.9585 21.9464 50.4979 22.2037C49.8618 22.3496 49.2012 22.2513 48.5553 22.2398C48.4947 23.2676 48.4898 24.2987 48.4996 25.3281C48.5176 25.6675 48.4078 25.992 48.2783 26.3019H47.6652C47.2095 26.274 46.7571 26.2199 46.3096 26.1412C46.1538 24.9692 46.2718 23.7856 46.1948 22.6086C46.0046 22.3873 45.5899 22.2431 45.6538 21.8939Z" fill="#21252D"/>
</g>
<defs>
<clipPath id="clip0_1272_27901">
<rect width="57.579" height="26.3035" fill="white" transform="translate(0.000366211)"/>
</clipPath>
</defs>
</svg>
