<svg width="90" height="13" viewBox="0 0 90 13" fill="none" xmlns="http://www.w3.org/2000/svg">
<g id="3. Dhl-logo">
<path id="Path" d="M0.000366211 11H11.0004L10.3608 12H0.000366211V11Z" fill="#21252D"/>
<path id="Path_2" d="M89.0004 12H76.0004L76.6488 11H89.0004V12Z" fill="#21252D"/>
<path id="Path_3" d="M0.000366211 10H12.0004L11.3424 11H0.000366211V10L0.000366211 10Z" fill="#21252D"/>
<path id="Path_4" d="M0.000366211 8H13.0004L12.3534 9H0.000366211V8Z" fill="#21252D"/>
<path id="Path_5" d="M90.0004 11H78.0004L78.6601 10H90.0004V11Z" fill="#21252D"/>
<path id="Path_6" d="M79.6738 8H90.0004V9H79.0004L79.6738 8Z" fill="#21252D"/>
<path id="Path_7" d="M12.0004 12.9672L17.7532 5C17.7532 5 24.1383 5 24.8969 5C25.6871 5 25.6871 5.29508 25.2762 5.85246C24.8969 6.37705 24.2331 7.32787 23.8222 7.88525C23.6326 8.18033 23.2532 8.67213 24.4544 8.67213C25.7504 8.67213 34.0004 8.67213 34.0004 8.67213C33.2101 9.78689 30.6182 13 26.0032 13C22.2734 12.9672 12.0004 12.9672 12.0004 12.9672H12.0004Z" fill="#21252D"/>
<path id="Path_8" d="M45.0004 8L41.9669 12H34.0004L37.0338 8H45.0004Z" fill="#21252D"/>
<path id="Path_9" d="M57.0004 8L53.9669 12H46.0004L49.0338 8H57.0004Z" fill="#21252D"/>
<path id="Path_10" d="M59.2924 8C59.2924 8 58.692 8.78788 58.4076 9.15152C57.3648 10.4545 58.2812 12 61.6625 12C65.5495 12 74.8718 12 74.8718 12L78.0004 8H59.2924Z" fill="#21252D"/>
<path id="Path_11" d="M15.8892 0L13.0004 3.63519C13.0004 3.63519 27.8889 3.63519 28.6826 3.63519C29.4762 3.63519 29.4762 3.90558 29.0635 4.41631C28.6826 4.897 28.0159 5.76824 27.6032 6.27897C27.4128 6.51931 27.0318 7 28.2381 7C29.5397 7 34.6507 7 34.6507 7C34.6507 7 35.6983 5.67811 36.5554 4.59657C37.73 3.12446 36.6507 0.0300429 32.4603 0.0300429C28.6826 0 15.8892 0 15.8892 0V0Z" fill="#21252D"/>
<path id="Path_12" d="M57.4221 7H37.0004L42.5787 0H50.9141L47.7402 4.01293H51.4591L54.665 0H63.0004L57.4221 7Z" fill="#21252D"/>
<path id="Path_13" d="M74.0004 0L68.587 7H60.0004L65.4137 0H74.0004Z" fill="#21252D"/>
</g>
</svg>
