<svg width="100" height="18" viewBox="0 0 100 18" fill="none" xmlns="http://www.w3.org/2000/svg">
<g id="4. Cognizant_logo_2022">
<g id="Clipped">
<mask id="mask0_1272_27867" style="mask-type:luminance" maskUnits="userSpaceOnUse" x="24" y="2" width="77" height="16">
<path id="SVGID_1_" fill-rule="evenodd" clip-rule="evenodd" d="M24.0004 2H100V18H24.0004V2Z" fill="white"/>
</mask>
<g mask="url(#mask0_1272_27867)">
<g id="Clipped_2">
<mask id="mask1_1272_27867" style="mask-type:luminance" maskUnits="userSpaceOnUse" x="24" y="2" width="77" height="16">
<path id="SVGID_00000170270455349886588150000003192033147480456075_" fill-rule="evenodd" clip-rule="evenodd" d="M24.0004 2H100V18H24.0004V2Z" fill="white"/>
</mask>
<g mask="url(#mask1_1272_27867)">
<path id="Shape" fill-rule="evenodd" clip-rule="evenodd" d="M65.237 2C64.6671 2 64.26 2.43137 64.26 2.94118C64.26 3.4902 64.7078 3.88235 65.237 3.88235C65.8069 3.88235 66.2139 3.45098 66.2139 2.94118C66.2547 2.43137 65.8069 2 65.237 2ZM99.9592 5.09806V6.54904H97.7203V10.902C97.7203 11.6863 98.4123 12.353 99.2264 12.353H99.9592V13.8039H99.2264C97.5574 13.8039 96.2141 12.5098 96.2141 10.902V2.74512H97.7203V5.09806H99.9592ZM53.3906 5.09805H51.8844L51.9251 6.07844C50.134 4.4706 47.3252 4.4706 45.5341 6.07844C43.6209 7.76472 43.5395 10.6275 45.2899 12.4706C47.0403 14.3137 50.0119 14.3922 51.9251 12.7059V13.4118C51.8437 15.098 50.4596 16.4706 48.7092 16.5098C47.488 16.549 46.3889 15.8824 45.8598 14.8235H44.2315C44.8014 16.7059 46.6739 18 48.7092 17.9608C51.2738 17.9216 53.3498 15.9216 53.3906 13.451V5.09805ZM59.0084 4.94118C58.0314 4.94118 57.1359 5.2549 56.4031 5.84314V5.13725H54.897V13.8039H56.4031V8.90196C56.4031 7.4902 57.5836 6.39216 59.0084 6.39216C60.4331 6.39216 61.6136 7.52941 61.6136 8.90196V13.8039H63.1198V8.90196C63.1198 6.70588 61.288 4.94118 59.0084 4.94118ZM64.5042 5.13721H66.0103V13.8039H64.5042V5.13721ZM51.8846 9.45098C51.8846 7.76471 50.4599 6.35294 48.7095 6.35294C46.9591 6.35294 45.4936 7.72549 45.4936 9.41176C45.4936 11.098 46.9184 12.5098 48.7095 12.5098C50.4599 12.5098 51.8846 11.1373 51.8846 9.45098ZM31.5718 8.11765C31.0427 7.05882 29.9029 6.35294 28.6816 6.35294C27.4197 6.35294 26.3206 7.05882 25.7914 8.15686C25.0587 9.68627 25.7507 11.5294 27.3383 12.2353C28.9259 12.9412 30.8391 12.2745 31.5718 10.7451H33.1594C32.7116 12.1961 31.5311 13.3333 30.025 13.7647C27.5418 14.5098 24.9366 13.1373 24.1632 10.7451C23.3897 8.35294 24.8145 5.80392 27.2976 5.09804C29.7807 4.35294 32.4267 5.72549 33.1594 8.11765H31.5718ZM43.2955 9.45098C43.2955 11.9608 41.1787 13.9608 38.6142 13.9608C36.0089 13.9608 33.9329 11.9216 33.9329 9.45098C33.9329 6.98039 35.9682 4.94118 38.5735 4.94118C41.1787 4.94118 43.2955 6.94118 43.2955 9.45098ZM38.6145 6.35303C40.3649 6.35303 41.7897 7.76479 41.7897 9.45107C41.7897 11.1373 40.3649 12.5099 38.5738 12.5099C36.8234 12.5099 35.3987 11.0981 35.3987 9.41185C35.3987 7.72558 36.8641 6.35303 38.6145 6.35303ZM90.8413 4.94118C89.8643 4.94118 88.9687 5.2549 88.236 5.84314V5.13725H86.7299V13.8039H88.236V8.90196C88.236 7.4902 89.4165 6.35294 90.8413 6.35294C92.3067 6.35294 93.4872 7.4902 93.4872 8.86275V13.7647H94.9934V8.90196C94.9527 6.70588 93.1208 4.94118 90.8413 4.94118ZM85.2233 5.13724H83.7171V6.15685C82.8215 5.37253 81.6817 4.94116 80.5012 4.94116C79.3207 4.94116 78.1809 5.37253 77.3261 6.15685C75.4129 7.84312 75.3314 10.7059 77.0818 12.549C78.8322 14.3921 81.8039 14.4706 83.7171 12.7843V13.8039H85.2233V5.13724ZM83.7175 9.45098C83.7175 7.76471 82.2928 6.39216 80.5017 6.39216C78.7513 6.39216 77.3265 7.76471 77.3265 9.4902C77.3265 11.1765 78.7513 12.549 80.5017 12.549C82.2928 12.5098 83.7175 11.1373 83.7175 9.45098ZM67.5159 5.13721H75.006L74.9653 6.58819L69.4291 12.3529H75.006V13.8039H67.5159V12.3529L73.052 6.58819H67.5159V5.13721Z" fill="#21252D"/>
</g>
</g>
</g>
</g>
<g id="Clipped_3">
<mask id="mask2_1272_27867" style="mask-type:luminance" maskUnits="userSpaceOnUse" x="0" y="0" width="22" height="18">
<path id="SVGID_00000085213138245146219190000008599264730915323836_" fill-rule="evenodd" clip-rule="evenodd" d="M0.000366211 0H21.0004V18H0.000366211V0Z" fill="white"/>
</mask>
<g mask="url(#mask2_1272_27867)">
<g id="Group">
<g id="Clipped_4">
<mask id="mask3_1272_27867" style="mask-type:luminance" maskUnits="userSpaceOnUse" x="0" y="9" width="13" height="9">
<path id="SVGID_00000050660665550895142240000014880732468509939883_" fill-rule="evenodd" clip-rule="evenodd" d="M0.000366211 9L6.16735 18L12.5359 14.1136L8.94854 9H0.000366211Z" fill="white"/>
</mask>
<g mask="url(#mask3_1272_27867)">
<path id="Path" d="M0.000366211 9H12.5359V18H0.000366211V9Z" fill="#21252D"/>
</g>
</g>
<g id="Clipped_5">
<mask id="mask4_1272_27867" style="mask-type:luminance" maskUnits="userSpaceOnUse" x="6" y="9" width="16" height="9">
<path id="SVGID_00000114070949333990582630000017270483092055787688_" fill-rule="evenodd" clip-rule="evenodd" d="M6.16736 18H14.9543L21.0004 9L6.16736 18Z" fill="white"/>
</mask>
<g mask="url(#mask4_1272_27867)">
<path id="Path_2" d="M6.16736 9H21.0004V18H6.16736V9Z" fill="#21252D"/>
</g>
</g>
<g id="Clipped_6">
<mask id="mask5_1272_27867" style="mask-type:luminance" maskUnits="userSpaceOnUse" x="0" y="0" width="13" height="9">
<path id="SVGID_00000124156495544010432790000012960116144518489730_" fill-rule="evenodd" clip-rule="evenodd" d="M6.16735 0L0.000366211 9H8.94854L12.5359 3.88636L6.16735 0Z" fill="white"/>
</mask>
<g mask="url(#mask5_1272_27867)">
<path id="Path_3" d="M0.000366211 0H12.5359V9H0.000366211V0Z" fill="#21252D"/>
</g>
</g>
<g id="Clipped_7">
<mask id="mask6_1272_27867" style="mask-type:luminance" maskUnits="userSpaceOnUse" x="6" y="0" width="16" height="9">
<path id="SVGID_00000147909067435365521700000017294411540867699616_" fill-rule="evenodd" clip-rule="evenodd" d="M6.16736 0L21.0004 9L14.9543 0H6.16736Z" fill="white"/>
</mask>
<g mask="url(#mask6_1272_27867)">
<path id="Path_4" d="M6.16736 0H21.0004V9H6.16736V0Z" fill="#21252D"/>
</g>
</g>
</g>
</g>
</g>
</g>
</svg>
