<svg width="112" height="21" viewBox="0 0 112 21" fill="none" xmlns="http://www.w3.org/2000/svg">
<g id="2. larsen-toubro-vector-logo">
<g id="Layer_2">
<path id="Shape" fill-rule="evenodd" clip-rule="evenodd" d="M9.03072 19.5611L13.4554 11.784H10.4696L11.9625 9.17953H18.9773L17.4844 11.8023H14.9483L10.4696 19.6886C15.4519 19.6886 19.5529 15.5542 19.5529 10.4909C19.5529 5.46401 15.4699 1.32958 10.4696 1.32958C10.1099 1.32958 9.7322 1.34779 9.40844 1.40243L4.94777 9.21596H10.4696L8.95877 11.784H1.94401L7.66374 1.7667C4.03045 2.95056 1.40441 6.42931 1.40441 10.4727C1.40441 15.0442 4.71394 18.8508 9.03072 19.5611ZM10.4696 0C16.1714 0 20.8299 4.71726 20.8299 10.4909C20.8299 16.2827 16.1534 21 10.4696 21C4.74991 21 0.109375 16.2827 0.109375 10.4909C0.109375 4.69905 4.74991 0 10.4696 0Z" fill="#21252D"/>
<path id="Shape_2" fill-rule="evenodd" clip-rule="evenodd" d="M48.8272 7.10926C48.3421 6.9443 47.7672 6.85266 47.1563 6.85266C45.8986 6.85266 44.5152 7.42084 44.1917 8.99709C43.9056 10.3212 44.8403 10.7142 45.6466 11.0532C46.2578 11.3101 46.7951 11.536 46.6712 12.1129C46.5275 12.7544 45.7369 13.0294 45.1979 13.0294C44.623 13.0294 44.1019 12.8644 43.6707 12.5895L43.2754 13.8541C43.3472 13.872 43.4153 13.8891 43.4805 13.9056L43.4806 13.9056L43.4815 13.9059L43.4816 13.9059L43.4816 13.9059L43.4816 13.9059C44.0195 14.0417 44.3655 14.1291 45.0542 14.1291C46.4915 14.1291 47.875 13.5426 48.1984 12.003C48.4902 10.6423 47.5127 10.2434 46.6928 9.90881C46.099 9.6665 45.5878 9.45789 45.701 8.94211C45.8627 8.17231 46.5454 7.9707 47.0305 7.9707C47.5336 7.9707 48.0187 8.08067 48.432 8.26395L48.8272 7.10926ZM69.7772 8.44724C69.5796 9.41865 68.8789 9.87686 67.9985 10.3167L68.9867 11.7097C69.4179 11.3248 69.6335 10.7383 69.7772 10.1884H71.0349C70.8193 11.0682 70.3342 11.9113 69.6155 12.5895L70.6037 14.0008H68.8429L68.4836 13.3776C67.8727 13.8908 67.0822 14.1291 66.3635 14.1291C64.9441 14.1291 63.9739 13.3959 64.2434 12.0763C64.423 11.2148 64.9261 10.61 66.1659 10.1335L66.1109 10.0708C65.688 9.58934 65.364 9.22049 65.519 8.44724C65.7526 7.38419 67.0462 6.85266 68.0524 6.85266C69.0585 6.85266 70.0288 7.31087 69.7772 8.44724ZM81.4377 14.1474C79.1379 14.1474 78.2396 12.6261 78.7067 10.4817C79.1739 8.31894 80.719 6.85266 82.9829 6.85266C85.2288 6.85266 86.181 8.3556 85.7318 10.4817C85.2827 12.6078 83.7016 14.1474 81.4377 14.1474ZM107.598 14.1474C105.298 14.1474 104.4 12.6261 104.867 10.4817C105.316 8.31894 106.861 6.85266 109.143 6.85266C111.389 6.85266 112.341 8.3556 111.892 10.4817C111.443 12.6078 109.862 14.1474 107.598 14.1474ZM108.909 7.97058C107.49 7.97058 106.628 9.23525 106.358 10.4816C106.089 11.7462 106.358 13.0292 107.849 13.0292C109.305 13.0292 110.131 11.7462 110.401 10.4816C110.652 9.23525 110.347 7.97058 108.909 7.97058ZM98.6681 14.0191H100.105L100.734 11.1049H101.201C101.812 11.1049 101.956 11.3065 102.046 11.838L102.441 14.0374H104.04L103.465 11.2881C103.393 10.9766 103.25 10.5917 102.854 10.5733V10.555C103.789 10.4267 104.507 9.74856 104.687 8.92377C105.089 7.01448 103.346 7.01611 101.828 7.01753L101.705 7.01761H100.141L98.6681 14.0191ZM101.83 8.08069H101.363L100.968 9.96852H101.435C102.136 9.96852 102.962 9.87688 103.16 8.99711C103.34 8.154 102.549 8.08069 101.83 8.08069ZM92.7032 14.0192H95.2186C96.117 14.0192 97.8059 13.7626 98.1832 11.9847C98.3629 11.1233 97.8239 10.4635 96.8716 10.3902V10.3718C97.752 10.2252 98.4527 9.63869 98.6324 8.79558C98.9558 7.25599 97.6262 6.99939 96.7099 6.99939H94.1945L92.7032 14.0192ZM95.9725 8.08069H95.4155L95.0382 9.82189H95.6311C96.242 9.82189 97.0146 9.67527 97.1763 8.96046C97.338 8.13567 96.6373 8.08069 95.9725 8.08069ZM94.8229 10.8666H95.5056C96.2243 10.8666 96.961 11.0132 96.7633 11.9297C96.5836 12.7361 95.7392 12.9011 95.0744 12.9011H94.3917L94.8229 10.8666ZM88.6597 14.129C86.8091 14.129 85.8928 13.3592 86.2881 11.4713L87.2583 6.96252H88.6956L87.8332 11.0314C87.5637 12.2411 87.7793 13.0293 88.8933 13.0293C90.0072 13.0293 90.5642 12.2228 90.8158 11.0314L91.6782 6.96252H93.1155L92.1633 11.4713C91.75 13.3592 90.4924 14.129 88.6597 14.129ZM80.2161 10.4816C80.4856 9.23525 81.3301 7.97058 82.7495 7.97058C84.1868 7.97058 84.5102 9.23525 84.2407 10.4816C83.9712 11.7462 83.1627 13.0292 81.6894 13.0292C80.2161 13.0292 79.9286 11.7462 80.2161 10.4816ZM74.9157 14.0192H76.353L77.6107 8.09912H79.6769L79.9105 6.98108H74.3587L74.1251 8.09912H76.1913L74.9157 14.0192ZM67.3513 9.60193C67.3242 9.56745 67.2955 9.53211 67.266 9.4959C67.0608 9.24339 66.8213 8.94882 66.8841 8.6122C66.9919 8.099 67.4591 7.86073 67.8723 7.86073C68.2856 7.86073 68.609 8.099 68.5012 8.57554C68.4113 8.97877 67.7465 9.40032 67.3513 9.60193ZM66.615 13.0843C67.1001 13.0843 67.5852 12.9743 67.9625 12.6627L66.7407 10.9032C66.2197 11.1598 65.7526 11.4897 65.6268 12.0396C65.4831 12.6627 65.9502 13.0843 66.615 13.0843ZM53.9122 14.0192H55.2777L56.4097 8.75894H56.4276L58.0626 14.0192H59.8234L61.3147 6.98108H59.9312L58.8172 12.2414H58.7993L57.1822 6.98108H55.4215L53.9122 14.0192ZM52.8335 14.019H48.5753L50.0666 6.96252H54.3068L54.0732 8.08056H51.2704L50.8931 9.82177H53.4624L53.2288 10.9398H50.6775L50.2463 12.9193H53.0671L52.8335 14.019ZM39.0176 14.0191H37.5802L39.0715 7.01761H40.6346L40.7578 7.01753C42.276 7.01611 44.0194 7.01448 43.6171 8.92377C43.4375 9.74856 42.7188 10.4267 41.7845 10.555V10.5733C42.1618 10.5917 42.3235 10.9766 42.3954 11.2881L42.9523 14.0374H41.3533L40.958 11.838C40.8682 11.3065 40.7244 11.1049 40.1136 11.1049H39.6464L39.0176 14.0191ZM40.2753 8.08069H40.7424C41.4611 8.08069 42.2517 8.154 42.072 8.99711C41.8743 9.87688 41.0479 9.96852 40.3471 9.96852H39.88L40.2753 8.08069ZM31.7406 14.0191H30.2493L34.5434 6.98096H36.1605L37.49 14.0191H35.891L35.6215 12.4062H32.7108L31.7406 14.0191ZM35.4598 11.2882H33.3576L35.0106 8.39225H35.0286L35.4598 11.2882ZM30.1775 14.0191H25.9552L27.4465 6.98096H28.8838L27.6261 12.9194H30.411L30.1775 14.0191Z" fill="#21252D"/>
<path id="Shape_3" fill-rule="evenodd" clip-rule="evenodd" d="M8.92135 19.5611L13.346 11.8023H10.3603L11.8532 9.19774H18.8679L17.375 11.8205H14.8389L10.3603 19.7069C15.3426 19.7069 19.4435 15.5724 19.4435 10.5091C19.4435 5.48222 15.3605 1.34779 10.3603 1.34779C10.0005 1.34779 9.62282 1.366 9.29906 1.42064L4.83839 9.23417H10.3603L8.86739 11.8387H1.85262L7.57235 1.82134C3.93906 3.0052 1.29503 6.48396 1.29503 10.5455C1.29503 15.0442 4.60457 18.8508 8.92135 19.5611ZM10.3603 0C16.062 0 20.7205 4.71726 20.7205 10.4909C20.7205 16.2827 16.044 21 10.3603 21C4.64054 21 0 16.2827 0 10.4909C0 4.69905 4.65852 0 10.3603 0Z" fill="#21252D"/>
<path id="Shape_4" fill-rule="evenodd" clip-rule="evenodd" d="M48.7354 7.10914C48.2503 6.94418 47.6754 6.85254 47.0645 6.85254C45.8068 6.85254 44.4233 7.42072 44.0999 8.99697C43.8137 10.3211 44.7485 10.714 45.5548 11.053C46.1659 11.31 46.7033 11.5359 46.5794 12.1128C46.4356 12.7543 45.6451 13.0292 45.1061 13.0292C44.5311 13.0292 44.0101 12.8643 43.5789 12.5894L43.1836 13.854C43.2554 13.8718 43.3235 13.889 43.3887 13.9055L43.3897 13.9057L43.3897 13.9057L43.3897 13.9058L43.3898 13.9058C43.9276 14.0416 44.2737 14.1289 44.9623 14.1289C46.3997 14.1289 47.7832 13.5424 48.1066 12.0028C48.3983 10.6422 47.4209 10.2433 46.6009 9.90869C46.0072 9.66638 45.4959 9.45776 45.6091 8.94199C45.7708 8.17219 46.4536 7.97058 46.9387 7.97058C47.4418 7.97058 47.9269 8.08055 48.3401 8.26383L48.7354 7.10914ZM69.6677 8.44712C69.4701 9.41853 68.7694 9.87674 67.889 10.3166L68.8772 11.7096C69.3084 11.3247 69.524 10.7382 69.6677 10.1883H70.9254C70.7098 11.0681 70.2247 11.9112 69.506 12.5894L70.4942 14.0006H68.7334L68.3741 13.3775C67.7632 13.8907 66.9727 14.1289 66.254 14.1289C64.8346 14.1289 63.8644 13.3958 64.1339 12.0762C64.3135 11.2147 64.8166 10.6099 66.0564 10.1333L66.0014 10.0707C65.5785 9.58921 65.2545 9.22037 65.4095 8.44712C65.6431 7.38407 66.9367 6.85254 67.9429 6.85254C68.949 6.85254 69.9193 7.31075 69.6677 8.44712ZM81.3282 14.1473C79.0284 14.1473 78.1301 12.626 78.5972 10.4816C79.0644 8.31882 80.6095 6.85254 82.8734 6.85254C85.1193 6.85254 86.0715 8.35547 85.6223 10.4816C85.1732 12.6077 83.5921 14.1473 81.3282 14.1473ZM107.488 14.1473C105.189 14.1473 104.29 12.626 104.757 10.4816C105.207 8.31882 106.752 6.85254 109.034 6.85254C111.279 6.85254 112.232 8.35547 111.782 10.4816C111.333 12.6077 109.752 14.1473 107.488 14.1473ZM108.8 7.97046C107.38 7.97046 106.518 9.23512 106.249 10.4815C105.979 11.7461 106.267 13.0291 107.74 13.0291C109.195 13.0291 110.022 11.7461 110.291 10.4815C110.543 9.23512 110.237 7.97046 108.8 7.97046ZM98.5586 14.019H99.996L100.625 11.1047H101.092C101.703 11.1047 101.847 11.3064 101.936 11.8379L102.332 14.0373H103.931L103.356 11.288C103.284 10.9764 103.14 10.5915 102.745 10.5732V10.5549C103.679 10.4266 104.398 9.74843 104.578 8.92365C104.98 7.01436 103.236 7.01599 101.718 7.01741L101.595 7.01749H100.032L98.5586 14.019ZM101.721 8.08057H101.254L100.858 9.9684H101.326C102.026 9.9684 102.853 9.87676 103.05 8.99699C103.23 8.15388 102.439 8.08057 101.721 8.08057ZM92.5938 14.0191H95.1091C96.0075 14.0191 97.6964 13.7625 98.0737 11.9846C98.2534 11.1232 97.7144 10.4634 96.7621 10.39V10.3717C97.6425 10.2251 98.3432 9.63857 98.5229 8.79546C98.8463 7.25587 97.5167 6.99927 96.6004 6.99927H94.085L92.5938 14.0191ZM95.863 8.08057H95.306L94.9287 9.82177H95.5216C96.1325 9.82177 96.9051 9.67514 97.0668 8.96033C97.2285 8.13555 96.5278 8.08057 95.863 8.08057ZM94.7134 10.8665H95.3961C96.1148 10.8665 96.8515 11.0131 96.6538 11.9295C96.4742 12.736 95.6297 12.9009 94.9649 12.9009H94.2822L94.7134 10.8665ZM88.5502 14.1288C86.6996 14.1288 85.7833 13.359 86.1786 11.4712L87.1488 6.9624H88.5862L87.7237 11.0313C87.4542 12.241 87.6878 13.0291 88.7838 13.0291C89.8977 13.0291 90.4547 12.2227 90.7063 11.0313L91.5687 6.9624H93.006L92.0538 11.4712C91.6405 13.359 90.4008 14.1288 88.5502 14.1288ZM80.1062 10.4816C80.3757 9.23524 81.2201 7.97058 82.6395 7.97058C84.0769 7.97058 84.4003 9.23524 84.1308 10.4816C83.8613 11.7462 83.0528 13.0292 81.5795 13.0292C80.1062 13.0292 79.8367 11.7462 80.1062 10.4816ZM74.8062 14.0191H76.2435L77.5012 8.09899H79.5674L79.801 6.98096H74.2492L74.0156 8.09899H76.0818L74.8062 14.0191ZM67.2418 9.60181C67.2147 9.56733 67.186 9.53198 67.1566 9.49577C66.9513 9.24326 66.7118 8.9487 66.7746 8.61207C66.8824 8.09888 67.3496 7.86061 67.7628 7.86061C68.1761 7.86061 68.4995 8.09888 68.3917 8.57542C68.3018 8.97864 67.637 9.4002 67.2418 9.60181ZM66.5055 13.0842C66.9906 13.0842 67.4757 12.9742 67.853 12.6626L66.6312 10.9031C66.1102 11.1597 65.6431 11.4896 65.5173 12.0394C65.3736 12.6626 65.8407 13.0842 66.5055 13.0842ZM53.8204 14.019H55.1859L56.3178 8.7587H56.3358L57.9708 14.019H59.7315L61.2228 6.98084H59.8393L58.7254 12.2411H58.7074L57.0904 6.98084H55.3296L53.8204 14.019ZM52.724 14.0189H48.4658L49.9571 6.9624H54.1973L53.9637 8.08044H51.1609L50.7836 9.82165H53.3529L53.1193 10.9397H50.568L50.1368 12.9192H52.9576L52.724 14.0189ZM38.9081 14.019H37.4707L38.962 7.01749H40.5251L40.6483 7.01741C42.1665 7.01599 43.9099 7.01436 43.5076 8.92365C43.328 9.74843 42.6093 10.4266 41.675 10.5549V10.5732C42.0523 10.5915 42.214 10.9764 42.2859 11.288L42.8428 14.0373H41.2438L40.8485 11.8379C40.7587 11.3064 40.6149 11.1047 40.0041 11.1047H39.5369L38.9081 14.019ZM40.1834 8.08055H40.6505C41.3692 8.08055 42.1598 8.15386 41.9801 8.99697C41.7825 9.87674 40.956 9.96838 40.2553 9.96838H39.7881L40.1834 8.08055ZM31.6495 14.0191H30.1582L34.4523 6.98096H36.0694L37.3989 14.0191H35.7999L35.5303 12.4062H32.6197L31.6495 14.0191ZM35.3678 11.288H33.2656L34.9186 8.39209H34.9366L35.3678 11.288ZM30.068 14.019H25.8457L27.337 6.98084H28.7743L27.5166 12.9193H30.3015L30.068 14.019Z" fill="#21252D"/>
</g>
</g>
</svg>
