<svg width="76" height="21" viewBox="0 0 76 21" fill="none" xmlns="http://www.w3.org/2000/svg">
<g id="1. Tata_Consultancy_Services_Logo">
<g id="Group">
<path id="Path" d="M39.133 8.98424H40.7288V6.14683H41.8609V5H38.001V6.14683H39.133V8.98424Z" fill="#21252D"/>
<path id="Path_2" d="M43.0374 8.98424L43.8508 6.60161L44.6629 8.98424H46.224L44.6939 5H43.0064L41.4775 8.98424H43.0374Z" fill="#21252D"/>
<path id="Path_3" d="M46.9729 8.98424H48.5687V6.14683H49.7007V5H45.8408V6.14683H46.9729V8.98424Z" fill="#21252D"/>
<path id="Path_4" d="M50.8782 8.98424L51.6916 6.60161L52.5037 8.98424H54.0648L52.536 5H50.8472L49.3184 8.98424H50.8782Z" fill="#21252D"/>
<path id="Path_5" d="M66.1918 11.8327C66.3889 12.2838 66.6493 12.772 66.9085 13.207L67.9525 14.9593H68.7088V10.9751H68.0331V12.3654C68.0331 12.9746 68.0467 13.4875 68.0988 14.0164L68.0852 14.0201C67.9004 13.5876 67.6685 13.1242 67.4044 12.6855L66.3716 10.9751H65.5371V14.9593H66.2116V13.5345C66.2116 12.8807 66.2017 12.3543 66.1732 11.8365L66.1918 11.8327Z" fill="#21252D"/>
<path id="Shape" fill-rule="evenodd" clip-rule="evenodd" d="M63.8372 13.8335H62.5675L62.2278 14.9593H61.4727L62.756 10.9751H63.6847L64.9829 14.9593H64.1993L63.8372 13.8335ZM63.134 11.7614C63.0908 11.9409 63.0454 12.1302 62.9948 12.2999L62.6836 13.2848H63.714L63.399 12.3024C63.3423 12.1178 63.2911 11.9187 63.2434 11.7331C63.2276 11.6714 63.2121 11.6112 63.1969 11.5535H63.1845C63.1679 11.62 63.1511 11.6899 63.134 11.7614Z" fill="#21252D"/>
<path id="Path_6" d="M50.6674 14.4193C50.2954 14.4193 49.9371 14.3007 49.7015 14.1647L49.5391 14.7678C49.7573 14.9013 50.1962 15.0224 50.619 15.0224C51.6507 15.0224 52.1355 14.4663 52.1355 13.8249C52.1355 13.2527 51.8019 12.9042 51.1076 12.641C50.5744 12.4383 50.3425 12.2937 50.3425 11.9885C50.3425 11.7537 50.5397 11.509 51.0034 11.509C51.3791 11.509 51.6581 11.6227 51.8019 11.6981L51.9768 11.111C51.7684 11.006 51.451 10.9146 51.0183 10.9146C50.1516 10.9146 49.6035 11.4064 49.6035 12.0589C49.6035 12.6299 50.0251 12.9833 50.686 13.2169C51.1906 13.3998 51.394 13.5777 51.394 13.878C51.394 14.2018 51.1324 14.4193 50.6674 14.4193Z" fill="#21252D"/>
<path id="Path_7" d="M40.1721 11.5139C40.4982 11.5139 40.7648 11.5856 40.9508 11.6696L41.1095 11.0901C40.9607 11.0097 40.6222 10.9133 40.1411 10.9133C38.9198 10.9133 38.001 11.7042 38.001 13.0142C38.001 14.2265 38.7735 15.0224 40.0419 15.0224C40.5255 15.0224 40.9061 14.9272 41.0785 14.8407L40.9582 14.2673C40.766 14.3538 40.4573 14.4119 40.1609 14.4119C39.2818 14.4119 38.7697 13.8558 38.7697 12.9771C38.7697 12.0206 39.3562 11.5139 40.1721 11.5139Z" fill="#21252D"/>
<path id="Path_8" d="M60.5832 14.9593V11.5868H61.7351V10.9751H58.7109V11.5868H59.8529V14.9593H60.5832Z" fill="#21252D"/>
<path id="Path_9" d="M75.1767 10.9751L74.6956 11.9959C74.5592 12.2851 74.4489 12.5322 74.3497 12.7868H74.3373C74.2281 12.5174 74.124 12.29 73.9888 11.9971L73.5127 10.9751H72.677L73.9417 13.3009V14.9593H74.672V13.2811L76 10.9763H75.1767V10.9751Z" fill="#21252D"/>
<path id="Shape_2" fill-rule="evenodd" clip-rule="evenodd" d="M41.323 12.9982C41.323 11.7747 42.098 10.9109 43.2263 10.9109C44.3918 10.9109 45.0787 11.7883 45.0812 12.9277C45.0812 14.2624 44.2691 15.0261 43.1742 15.0261H43.168C42.0372 15.0261 41.323 14.1648 41.323 12.9982ZM43.1912 14.4428H43.1974C43.9029 14.4428 44.3022 13.7878 44.3034 12.9549C44.3034 12.2035 43.9289 11.4929 43.1999 11.4929C42.4708 11.4929 42.0864 12.1862 42.0877 12.9808C42.0852 13.773 42.4931 14.4428 43.1912 14.4428Z" fill="#21252D"/>
<path id="Path_10" d="M71.509 11.5139C71.8351 11.5139 72.1017 11.5856 72.2877 11.6696L72.4464 11.0901C72.2976 11.0097 71.9591 10.9133 71.478 10.9133C70.2567 10.9133 69.3379 11.7042 69.3379 13.0142C69.3379 14.2265 70.1104 15.0224 71.3788 15.0224C71.8624 15.0224 72.243 14.9285 72.4154 14.8407L72.2951 14.2673C72.1029 14.3538 71.7942 14.4119 71.4978 14.4119C70.6187 14.4119 70.1066 13.8558 70.1066 12.9771C70.1066 12.0206 70.6931 11.5139 71.509 11.5139Z" fill="#21252D"/>
<path id="Path_11" d="M57.4715 10.9751H56.7412V14.9593H59.1157V14.3489H57.4715V10.9751Z" fill="#21252D"/>
<path id="Path_12" d="M55.9112 13.2514V10.9763H55.1809V13.2996C55.1809 14.0807 54.8647 14.4403 54.339 14.4403C53.8442 14.4403 53.5194 14.0782 53.5194 13.2996V10.9763H52.7891V13.2564C52.7891 14.5095 53.3904 15.0273 54.3117 15.0273C55.2776 15.0261 55.9112 14.4786 55.9112 13.2514Z" fill="#21252D"/>
<path id="Path_13" d="M48.8766 10.9751H48.2009V12.3654C48.2009 12.9746 48.2145 13.4875 48.2666 14.0164L48.2529 14.0201C48.0682 13.5876 47.8363 13.1242 47.5722 12.6855L46.5394 10.9751H45.7049V14.9593H46.3807V13.5345C46.3807 12.8807 46.3707 12.3543 46.3422 11.8377L46.3608 11.834C46.558 12.2851 46.8183 12.7732 47.0775 13.2082L48.1215 14.9606H48.8779V10.9751H48.8766Z" fill="#21252D"/>
<rect id="Rectangle" x="51.2705" y="16.9514" width="0.730316" height="3.98424" fill="#21252D"/>
<path id="Shape_3" fill-rule="evenodd" clip-rule="evenodd" d="M46.2505 19.0512V19.0672C46.5381 19.176 46.7043 19.4491 46.8035 19.8334C46.82 19.8987 46.8362 19.9633 46.8522 20.0266C46.9567 20.4424 47.0471 20.8017 47.1159 20.9358H46.372C46.3112 20.8209 46.2157 20.4946 46.1054 20.0027C45.9913 19.4874 45.8028 19.3206 45.3912 19.3107H45.0267V20.9358H44.3075V17.0368C44.584 16.9861 44.9113 16.9515 45.4061 16.9515C45.9008 16.9515 46.3621 17.0479 46.6299 17.2704C46.8469 17.4508 46.9709 17.7252 46.9709 18.0638C46.9709 18.5729 46.6237 18.9189 46.2505 19.0512ZM45.0262 18.7805H45.4553C45.9463 18.7805 46.2488 18.5222 46.2488 18.1292C46.2488 17.6979 45.945 17.4965 45.4763 17.4952C45.247 17.4952 45.0994 17.5125 45.0262 17.5311V18.7805Z" fill="#21252D"/>
<path id="Path_14" d="M49.4805 18.7731C49.3255 19.2563 49.1804 19.7432 49.0738 20.2128H49.0614C48.9572 19.7309 48.8208 19.265 48.6695 18.762L48.124 16.9503H47.3279L48.6212 20.9346H49.4581L50.8394 16.9503H50.062L49.4805 18.7731Z" fill="#21252D"/>
<path id="Path_15" d="M57.0536 19.1672H58.5601V18.574H57.0536V17.5495H58.6493V16.9514H56.3232V20.9344H58.7374V20.3363H57.0536V19.1672Z" fill="#21252D"/>
<path id="Path_16" d="M54.8 17.489C55.1261 17.489 55.3927 17.5607 55.5787 17.6447L55.7374 17.0651C55.5886 16.9848 55.2501 16.8884 54.769 16.8884C53.5477 16.8884 52.6289 17.6793 52.6289 18.9893C52.6289 20.2016 53.4014 20.9975 54.6698 20.9975C55.1534 20.9975 55.5341 20.9036 55.7064 20.8158L55.5861 20.2424C55.3927 20.3289 55.0852 20.387 54.7889 20.387C53.9097 20.387 53.3977 19.8309 53.3977 18.9522C53.3977 17.9957 53.9841 17.489 54.8 17.489Z" fill="#21252D"/>
<path id="Path_17" d="M39.5697 18.6161C39.0353 18.4134 38.8047 18.2688 38.8047 17.9636C38.8047 17.7288 39.0019 17.4841 39.4644 17.4841C39.84 17.4841 40.119 17.5978 40.2629 17.6732L40.4377 17.0861C40.2294 16.9811 39.912 16.8896 39.4792 16.8896C38.6125 16.8896 38.0645 17.3815 38.0645 18.034C38.0645 18.6049 38.4861 18.9584 39.1469 19.192C39.6516 19.3749 39.8549 19.5528 39.8549 19.8531C39.8549 20.1794 39.5945 20.3969 39.1283 20.3969C38.7564 20.3969 38.398 20.2782 38.1624 20.1423L38 20.7454C38.2182 20.8788 38.6572 20.9999 39.08 20.9999C40.1116 20.9999 40.5964 20.4438 40.5964 19.8024C40.5976 19.2278 40.2641 18.8793 39.5697 18.6161Z" fill="#21252D"/>
<path id="Path_18" d="M41.9842 19.1672H43.4907V18.574H41.9842V17.5495H43.5812V16.9514H41.2539V20.9344H43.6693V20.3363H41.9842V19.1672Z" fill="#21252D"/>
<path id="Path_19" d="M60.7709 18.6161C60.2377 18.4134 60.0059 18.2688 60.0059 17.9636C60.0059 17.7288 60.203 17.4841 60.6655 17.4841C61.0412 17.4841 61.3202 17.5978 61.464 17.6732L61.6389 17.0861C61.4306 16.9811 61.1131 16.8896 60.6804 16.8896C59.8137 16.8896 59.2656 17.3815 59.2656 18.034C59.2656 18.6049 59.6872 18.9584 60.3481 19.192C60.8528 19.3749 61.0561 19.5528 61.0561 19.8531C61.0561 20.1794 60.7957 20.3969 60.3295 20.3969C59.9575 20.3969 59.5992 20.2782 59.3636 20.1423L59.2012 20.7454C59.4194 20.8788 59.8583 20.9999 60.2811 20.9999C61.3128 20.9999 61.7976 20.4438 61.7976 19.8024C61.7988 19.2278 61.4653 18.8793 60.7709 18.6161Z" fill="#21252D"/>
</g>
<g id="Group_2">
<path id="Path_20" d="M0 7.52628C0 5.70551 1.20225 4.61304 2.95939 4.61304V1.51773C2.95939 0.60734 2.34242 0 1.47969 0C0.616961 0 0 0.60734 0 1.51773V7.52628H0Z" fill="#21252D"/>
<path id="Path_21" d="M5.241 20.9688C5.98085 20.9688 6.65862 20.8478 7.27558 20.6346C4.16164 21.1509 2.95939 19.057 2.95939 16.69V6.98004H6.56614C7.39847 6.98004 7.95335 6.49492 7.95335 5.79654C7.95335 5.09816 7.39847 4.61304 6.56614 4.61304H2.95939C1.20225 4.61304 0 5.7055 0 7.52627V15.8707C0 19.2092 1.9421 20.9688 5.241 20.9688Z" fill="#21252D"/>
<path id="Path_22" d="M7.27518 20.6345C8.50783 20.1793 9.46431 19.3301 10.08 18.0855L8.69279 15.6274C8.07583 17.4482 6.99774 18.4197 5.51804 18.4197C3.97627 18.4197 2.95898 17.5392 2.95898 15.5364V16.6899C2.95898 19.057 4.16124 21.1508 7.27518 20.6345Z" fill="#21252D"/>
<path id="Path_23" d="M19.9442 20.1495C12.9157 21.1809 10.6961 17.4795 10.6961 12.7155C10.6961 9.25605 12.8536 6.88905 15.9675 6.88905C17.1077 6.88905 18.0642 7.13223 18.9269 7.52632C19.3272 7.7084 19.6668 7.7695 19.9746 7.7695C20.7145 7.7695 21.2073 7.28438 21.2073 6.55607C21.2073 6.10088 20.9298 5.64568 20.2825 5.34264C19.1106 4.76648 17.6005 4.43225 15.9663 4.43225C11.0952 4.43225 7.73547 7.83061 7.73547 12.7766C7.73547 17.6316 10.9723 21 16.1816 21C17.6018 20.9988 18.8344 20.7257 19.9442 20.1495Z" fill="#21252D"/>
<path id="Path_24" d="M7.73828 12.7753C7.73828 7.82927 11.098 4.43091 15.9691 4.43091C17.6033 4.43091 19.1134 4.76513 20.2853 5.34129C20.9326 5.64434 21.2101 6.09953 21.2101 6.55473C21.2101 7.28304 20.7173 7.76816 19.9774 7.76816C19.6696 7.76816 19.3301 7.70705 18.9297 7.52498C17.882 7.03985 16.8647 6.8877 15.9703 6.8877C11.6833 6.88895 7.73828 9.559 7.73828 12.7753Z" fill="#21252D"/>
<path id="Path_25" d="M26.14 5.40234C25.8626 5.67546 25.708 6.00968 25.708 6.40377C25.708 7.40519 26.6632 8.89174 28.8828 10.4095L31.4101 12.1392C33.2598 13.4137 33.9996 14.6272 33.9996 16.448C33.9996 17.7524 33.4751 18.8761 32.6124 19.6642C32.9202 19.3911 33.1052 19.027 33.1052 18.5418C33.1052 17.4793 32.0258 15.8107 29.7138 14.2331L27.4018 12.6555C25.4597 11.3199 24.6895 10.0765 24.6895 8.37669C24.6895 7.37526 25.0594 6.46488 25.6763 5.79768C25.8322 5.64428 25.9855 5.52331 26.14 5.40234Z" fill="#21252D"/>
<path id="Path_26" d="M24.1375 19.027C24.1375 19.5121 24.3845 19.9075 25.0319 20.2105C25.9263 20.6358 27.3743 20.9999 28.6691 20.9999C30.3033 20.9999 31.6589 20.5148 32.6153 19.6643C32.9232 19.3912 33.1082 19.027 33.1082 18.5419C33.1082 17.4794 32.0288 15.8107 29.7168 14.2332C30.7645 14.9615 31.1965 15.5688 31.1965 16.448C31.1965 17.7525 30.1488 18.6329 28.6374 18.6329C27.1881 18.6329 25.9555 17.9046 25.2777 17.9046C24.5999 17.9046 24.1375 18.3598 24.1375 19.027Z" fill="#21252D"/>
<path id="Path_27" d="M28.884 10.4095C27.8971 9.71112 27.4664 9.07385 27.4664 8.31561C27.4664 7.34412 28.2683 6.73803 29.4085 6.73803C30.8578 6.73803 31.5356 7.40523 32.3983 7.40523C33.0761 7.40523 33.5385 6.95003 33.5385 6.28283C33.5385 5.79771 33.2914 5.40238 32.6441 5.09933C31.6268 4.61421 30.517 4.43213 29.3148 4.43213C28.0504 4.43213 26.9407 4.79628 26.14 5.40362C25.8626 5.67674 25.708 6.01096 25.708 6.40505C25.708 7.40523 26.6645 8.89178 28.884 10.4095Z" fill="#21252D"/>
<path id="Path_28" d="M10.6974 12.7154C10.6974 17.4794 12.9169 21.182 19.9455 20.1494C22.1954 18.9959 23.7993 16.66 24.9078 13.0796L25.5551 10.9857C24.9382 10.1963 24.6924 9.31709 24.6924 8.37552C24.6924 7.3741 25.0623 6.46371 25.6793 5.79651C24.7545 6.768 23.9842 8.19344 23.3673 10.1963L22.6578 12.5022C21.3935 16.569 19.3906 18.5107 16.2766 18.5107C12.8549 18.5107 10.6974 16.1749 10.6974 12.7154Z" fill="#21252D"/>
</g>
</g>
</svg>
