<svg width="58" height="23" viewBox="0 0 58 23" fill="none" xmlns="http://www.w3.org/2000/svg">
<g id="7. Infosys_logo">
<g id="g11">
<g id="g2552">
<path id="path161" fill-rule="evenodd" clip-rule="evenodd" d="M0.57981 2.3525L0.579346 2.32426L0.579346 0.0636044H2.76833L2.76833 16.6445L2.76926 16.6961L2.76926 18.9333H0.579346L0.579346 16.6727L0.57981 16.6445L0.57981 2.3525Z" fill="#21252D"/>
<path id="path163" fill-rule="evenodd" clip-rule="evenodd" d="M22.8376 12.0615C22.8938 15.491 24.9527 18.2336 27.4366 18.1877C29.9201 18.1417 31.8875 15.3244 31.8313 11.8949C31.7747 8.46489 29.7157 5.72224 27.2318 5.76867C24.7484 5.81462 22.7809 8.63194 22.8376 12.0615ZM40.9621 7.91493C41.0192 8.0456 40.8836 7.71964 40.8836 7.71964L40.9621 7.91493ZM42.4539 22.1131C42.5542 21.936 42.694 21.6651 42.8603 21.3266L42.4539 22.1131ZM42.5823 6.73168C42.6087 6.80779 42.6394 6.88724 42.6738 6.971L43.4109 8.84204L42.5823 6.73168ZM33.4105 16.1505C34.7634 17.4237 35.9817 18.0819 37.5395 18.0819C39.134 18.0943 40.5515 17.2859 40.5515 15.7298C40.5515 14.4312 39.441 13.6716 37.4568 12.8019C35.7755 12.0476 34.5242 11.5187 33.8703 10.4269C33.9502 10.9012 33.992 11.3913 33.992 11.893C33.992 16.1046 31.0455 19.5193 27.4106 19.5193C23.7758 19.5193 20.8293 16.1046 20.8293 11.893C20.8293 9.35374 21.9003 7.10457 23.5468 5.71841H19.0931L19.0931 16.6445L19.0936 16.6881V18.9334H17.1155V16.7613C17.1169 16.723 17.1173 16.6842 17.1173 16.6445L17.1173 5.71841H15.3733V4.34325H17.1429C17.3714 1.56901 19.029 0 21.3239 0C22.812 0 23.629 0.160826 24.1009 0.387226L24.1009 2.26784C24.0935 2.40808 24.0935 2.49376 24.0935 2.49376C24.073 2.49136 24.0243 2.49041 24.0243 2.49041C23.3081 1.80546 22.6016 1.2957 20.9514 1.29762C19.637 1.29762 18.7675 2.40473 19.0713 4.34325H26.4747C26.7808 4.293 27.0929 4.26667 27.4106 4.26667C30.0473 4.26667 32.3223 6.06351 33.3724 8.65874C33.3626 8.51467 33.358 8.36438 33.358 8.20738C33.358 5.49967 35.886 4.34804 38.5121 4.35378C38.6124 4.3533 38.7109 4.35378 38.8075 4.35618C39.7317 4.34086 41.0485 4.65342 41.8524 4.87264L43.4112 8.84207L45.6387 14.4748L45.9002 15.3794L46.1914 14.4748L49.0083 7.24482C49.5281 5.25412 51.5851 4.39256 53.8573 4.39734C54.9868 4.39208 55.821 4.53328 56.8214 4.89801V7.08447C55.5897 6.15637 54.7077 5.61694 53.3101 5.61694C52.0816 5.61694 50.6051 6.18078 50.6051 8.05517C50.5814 9.46383 51.3966 9.72134 53.7885 10.9519C55.7546 11.837 57.5683 12.8139 57.5789 15.0765C57.5789 18.8487 53.9943 19.502 52.2493 19.5078C50.6915 19.5078 49.2638 19.1091 48.4696 18.4241V15.9337L48.5973 16.0433C50.0143 17.4151 51.2665 18.1259 52.8847 18.1259C54.4796 18.1384 55.8967 17.3295 55.8967 15.7734C55.8967 14.4748 54.7862 13.7152 52.802 12.8455C50.9056 11.9944 49.6614 11.4306 49.1528 10.021C48.3795 11.9763 44.7822 21.0586 43.9355 23H41.996L42.8738 21.3008C43.3601 20.3081 44.0674 18.7506 44.6958 17.2605L40.9621 7.91493C40.937 7.85797 40.8757 7.71437 40.7507 7.42C40.4642 6.74319 40.1976 6.11808 39.3913 5.80313C38.9593 5.65236 38.4995 5.57338 37.9649 5.57338C36.7364 5.57338 35.1652 6.13723 35.1652 8.01161C35.1415 9.42027 36.0509 9.67779 38.4433 10.9079C40.4094 11.7934 42.2231 12.7703 42.2338 15.0329C42.2338 18.8051 38.6486 19.458 36.9037 19.4642C35.5186 19.4642 34.2358 19.1488 33.4105 18.5974V16.1505Z" fill="#21252D"/>
<path id="path165" fill-rule="evenodd" clip-rule="evenodd" d="M6.85371 4.48396L6.87786 6.13434L6.87647 6.24538L6.89784 6.2449C6.92338 6.17598 6.95775 6.11758 6.99026 6.07403C7.79424 5.18039 8.80768 4.2925 11.2164 4.2925C13.5219 4.2925 15.0142 6.3234 15.0741 7.60187L15.0765 16.6445V16.6895V18.9334H13.1007V16.2372L13.1002 8.53907C13.1002 6.94517 11.7509 5.79258 10.0993 5.79258C8.7264 5.79258 6.96425 7.07345 6.90573 8.3701L6.90573 16.6469L6.90666 16.7077V18.9353H4.92993L4.92993 6.38419L4.9304 4.48396H6.85371Z" fill="#21252D"/>
</g>
</g>
</g>
</svg>
