<svg width="89" height="17" viewBox="0 0 89 17" fill="none" xmlns="http://www.w3.org/2000/svg">
<g id="6. Deloitte">
<path id="path3356" d="M83.5793 14.5004C83.5793 13.12 84.7 12 86.0797 12C87.4601 12 88.5793 13.12 88.5793 14.5004C88.5793 15.8808 87.4601 17 86.0797 17C84.7 17 83.5793 15.8808 83.5793 14.5004Z" fill="#21252D"/>
<path id="path3360" fill-rule="evenodd" clip-rule="evenodd" d="M12.3063 14.9682C13.8217 13.6142 14.5793 11.6853 14.5793 9.18207C14.5793 6.85584 13.8592 5.07821 12.4194 3.84668C10.979 2.61577 8.93496 2 6.28734 2H0.579346V17H5.91484C8.66073 17 10.791 16.3227 12.3063 14.9682ZM9.05701 6.2676C9.65495 6.9317 9.95389 7.95107 9.95389 9.3251C9.95389 10.7958 9.63725 11.8886 9.00612 12.6029C8.37425 13.3185 7.38193 13.675 6.02773 13.675H5.0354V5.27271H6.33232C7.5515 5.27271 8.45833 5.60413 9.05701 6.2676Z" fill="#21252D"/>
<path id="path3362" d="M28.5793 16H32.5793V1H28.5793V16Z" fill="#21252D"/>
<path id="path3366" fill-rule="evenodd" clip-rule="evenodd" d="M43.9936 15.4089C45.0517 14.349 45.5793 12.8704 45.5793 10.975C45.5793 9.76749 45.3342 8.71151 44.8425 7.80899C44.3514 6.90517 43.6524 6.21138 42.747 5.72696C41.8423 5.24254 40.798 5 39.6177 5C37.7073 5 36.2238 5.52344 35.1658 6.57031C34.1077 7.61718 33.5793 9.0854 33.5793 10.975C33.5793 12.8229 34.1188 14.2885 35.1982 15.3731C36.2763 16.4577 37.7288 17 39.5535 17C41.4562 17 42.9363 16.4694 43.9936 15.4089ZM38.206 13.2501C37.9304 12.7286 37.7923 11.9698 37.7923 10.975C37.7923 9.97881 37.9304 9.2304 38.206 8.72907C38.4823 8.22839 38.9374 7.97675 39.5742 7.97675C40.2254 7.97675 40.6847 8.22969 40.9541 8.73492C41.2227 9.23885 41.3567 9.98532 41.3567 10.975C41.3567 11.9698 41.2248 12.7286 40.9596 13.2501C40.6944 13.7723 40.2392 14.033 39.5956 14.033C38.945 14.033 38.4823 13.7723 38.206 13.2501Z" fill="#21252D"/>
<path id="path3370" d="M47.5793 17H51.5793V10.8172V5H47.5793V17Z" fill="#21252D"/>
<path id="path3372" d="M47.5793 3H51.5793V0H47.5793V3Z" fill="#21252D"/>
<path id="path3376" d="M58.7485 13.929C59.2598 13.929 59.8688 13.7988 60.5793 13.5405V16.3739C60.0687 16.5988 59.5832 16.7599 59.1217 16.8553C58.6602 16.952 58.1186 17 57.4989 17C56.2272 17 55.3105 16.6797 54.7475 16.0403C54.187 15.401 53.9059 14.4192 53.9059 13.0944V8.45222H52.5793V5.54104H53.9059V2.66525L57.7227 2V5.54104H60.1393V8.45222H57.7227V12.8354C57.7227 13.5645 58.065 13.929 58.7485 13.929Z" fill="#21252D"/>
<path id="path3380" d="M68.7486 13.929C69.2599 13.929 69.8689 13.7988 70.5793 13.5405V16.3739C70.0694 16.5988 69.5833 16.7599 69.1218 16.8553C68.6597 16.952 68.1201 17 67.4991 17C66.2276 17 65.311 16.6797 64.7492 16.0403C64.1876 15.401 63.9064 14.4192 63.9064 13.0944V8.45222H62.5793V5.54104H63.9064V2.62166L67.7223 2V5.54104H70.14V8.45222H67.7223V12.8354C67.7223 13.5645 68.0646 13.929 68.7486 13.929Z" fill="#21252D"/>
<path id="path3384" fill-rule="evenodd" clip-rule="evenodd" d="M77.2008 5C78.9162 5 80.2421 5.45584 81.1768 6.36621C82.112 7.27593 82.5793 8.58751 82.5793 10.2997V12.0794H75.5515C75.5783 12.7271 75.8119 13.2356 76.2505 13.6043C76.689 13.9724 77.2872 14.1564 78.045 14.1564C78.7362 14.1564 79.371 14.0894 79.9496 13.9561C80.3502 13.8644 80.7743 13.7253 81.2199 13.5445L81.8241 16.1566C81.2108 16.4739 80.5786 16.6937 79.9254 16.8153C79.2683 16.9382 78.4842 17 77.5731 17C75.6758 17 74.2025 16.4863 73.1534 15.4602C72.1049 14.4341 71.5793 12.9723 71.5793 11.0767C71.5793 9.11943 72.0656 7.61732 73.0375 6.57039C74.0101 5.52346 75.3976 5 77.2008 5ZM76.1797 8.16614C75.8682 8.46331 75.6856 8.92825 75.6319 9.56291H79.0098C78.9973 9.00368 78.8415 8.55695 78.5425 8.22337C78.2453 7.88783 77.8448 7.72136 77.3408 7.72136C76.8788 7.72136 76.4926 7.86962 76.1797 8.16614Z" fill="#21252D"/>
<path id="path3388" fill-rule="evenodd" clip-rule="evenodd" d="M21.2008 5C22.9168 5 24.2421 5.45584 25.1774 6.36621C26.112 7.27593 26.5793 8.58751 26.5793 10.2997V12.0794H19.5515C19.5783 12.7271 19.8113 13.2356 20.2505 13.6043C20.689 13.9724 21.2878 14.1564 22.045 14.1564C22.7362 14.1564 23.3704 14.0894 23.9502 13.9561C24.3501 13.8644 24.7742 13.7253 25.2199 13.5445L25.8247 16.1566C25.2108 16.4739 24.5786 16.6937 23.9254 16.8153C23.2683 16.9382 22.4842 17 21.5731 17C19.6758 17 18.2025 16.4863 17.154 15.4602C16.1042 14.4341 15.5793 12.9723 15.5793 11.0767C15.5793 9.11943 16.0663 7.61732 17.0382 6.57039C18.0101 5.52346 19.3969 5 21.2008 5ZM20.1797 8.16614C19.8682 8.46331 19.6856 8.92825 19.6319 9.56291H23.0104C22.9966 9.00368 22.8415 8.55695 22.5425 8.22337C22.2446 7.88783 21.8441 7.72136 21.3415 7.72136C20.8787 7.72136 20.4919 7.86962 20.1797 8.16614Z" fill="#21252D"/>
</g>
</svg>
